# xmcd CD database file
#
# Track frame offsets:
#	150
#	23037
#	42610
#	64425
#	80300
#	103900
#	113850
#	130200
#	151825
#
# Disc length: 2296 seconds
#
# Revision: 0
# Processed by: cddbd v1.5.1PL0 Copyright (c) Steve Scherf et al.
# Submitted via: CDex 1.51
#
DISCID=7608f609
DTITLE=泉谷しげる - ELEVATOR
DYEAR=1988
DGENRE=Pop/Funk
TTITLE0=UNDER PRICK
TTITLE1=EROS
TTITLE2=ELECTRIC BLUE
TTITLE3=ELEVATOR
TTITLE4=HAIR STYLE
TTITLE5=1900'S
TTITLE6=FACES
TTITLE7=SEDAI
TTITLE8=HYMN
EXTD=YEAR: 1988
EXTT0=
EXTT1=
EXTT2=
EXTT3=
EXTT4=
EXTT5=
EXTT6=
EXTT7=
EXTT8=
PLAYORDER=
